<?xml version="1.0" encoding="UTF-8"?>
<!DOCTYPE svg PUBLIC "-//W3C//DTD SVG 1.1//EN" "http://www.w3.org/Graphics/SVG/1.1/DTD/svg11.dtd">
<!-- Creator: CorelDRAW 2020 (64 Bit) -->
<svg xmlns="http://www.w3.org/2000/svg" xml:space="preserve" width="118.266mm" height="94.9302mm" version="1.1" style="shape-rendering:geometricPrecision; text-rendering:geometricPrecision; image-rendering:optimizeQuality; fill-rule:evenodd; clip-rule:evenodd"
viewBox="0 0 7673.82 6159.65"
 xmlns:xlink="http://www.w3.org/1999/xlink"
 xmlns:xodm="http://www.corel.com/coreldraw/odm/2003">
 <defs>
  <style type="text/css">
   <![CDATA[
    .fil2 {fill:#FEFEFE}
    .fil5 {fill:#96989A}
    .fil4 {fill:#606062}
    .fil3 {fill:#4B4B4D}
    .fil1 {fill:#373435}
    .fil7 {fill:#E9C732}
    .fil6 {fill:#4E9A4E}
    .fil8 {fill:#3370B6}
    .fil0 {fill:#AA0B2D}
   ]]>
  </style>
 </defs>
 <g id="Camada_x0020_1">
  <metadata id="CorelCorpID_0Corel-Layer"/>
  <g id="_2309386194992">
   <path class="fil0" d="M4500.54 377.29c165.47,-60.74 365.13,-120.91 540.25,-101.96l4.36 0.47 4.21 1.23c477.03,138.4 919.27,364.9 1326.02,648.11 448.93,134.82 867.03,331.22 1265.73,576.86l32.71 20.15 -10.94 36.82c-205.44,691.76 -479.32,1357.55 -848.83,1978.45 -300.64,505.16 -657.68,968.6 -1067.39,1390.06 -446.43,459.24 -946.77,860.67 -1479.53,1215.23l-25.48 16.95 -26.73 -14.91c-1384.7,-772.3 -2333.99,-1996.61 -2993.02,-3416.33 -180.67,51.88 -353.64,151 -508.15,254.31 -203.53,136.09 -396.13,292.93 -586.85,446.31l-67.06 53.93 -13.86 -84.92c-94.07,-576.3 -45.19,-1178 159.52,-1726.08l3.52 -9.44 6.9 -7.35c676.57,-720.35 1476.09,-1359.92 2434.4,-1652.16l6.71 -2.04 7.02 -0.13c290.31,-5.2 581.4,13.2 867.61,63.1 273.85,47.76 541.51,124.28 797.15,233.84 58,24.85 115.28,51.36 171.74,79.5z"/>
   <path class="fil1" d="M95.47 3389.96c-92.34,-565.71 -45.49,-1158.32 157,-1700.45 745.18,-793.41 1531.67,-1369.92 2412.47,-1638.53 670.43,-12 1285.99,103.95 1832.57,380.89 195.9,-73.11 381.79,-123.58 537.88,-106.69 460.46,133.59 898.71,352.89 1317.9,645.69 468.67,139.89 881.3,339.58 1261.52,573.81 -557,1875.58 -1547.56,3339.75 -3375.47,4556.27 -1224.25,-682.82 -2237.08,-1793.77 -2989.6,-3431.85 -371.8,91.52 -747.07,393.39 -1154.27,720.87zm4626.49 -1939.97l-44.23 333.9c72.83,99.52 196.2,193.11 369.27,280.83 282.4,-85.21 465,-216.99 570.5,-384.76 10.48,-171.23 -58.37,-322.63 -165.84,-464.36 29.02,239.07 -71.04,374.18 -254.29,442.26l59.7 46.43c-212.59,56.15 -365.28,-39.19 -477.62,-236.6l-57.5 -17.69zm-2432.97 2541.73l-94.52 -120.42c158.61,-299.71 467.91,-677.66 933.15,-1136.58l68.55 42.02c478.04,-102 918,-273.18 1331.17,-493.11l114.98 -322.85 83.44 67.36c-40.37,184.12 -108.51,355.42 -225.54,504.17l-35.38 -84.03c-264.5,173.4 -541.85,305.7 -835.85,384.76l39.81 -61.91c-134.44,68.85 -310.75,105.08 -486.47,114.98 -378.47,322 -668.2,695.19 -893.35,1105.62zm-1849.7 -1172.89l169.15 -222.23 -5.52 80.71c178.96,-158.56 367.58,-304.69 567.18,-436.72l-5.53 158.1c228.92,-208.39 462.46,-375.39 703.18,-477.62l-57.5 114.98c216.03,-79.67 432.62,-153.25 650.11,-216.71l-66.34 106.14c348.39,-85.83 658.48,-127.91 924.3,-119.41l-61.91 110.57c308.51,-5.63 603.99,10.06 880.08,57.5l-1114.47 570.5c-905.96,-308.39 -1771.13,-254.76 -2582.73,274.19zm662.61 -1542.86c210.16,-78.17 412.34,-133.36 598.91,-143.72 66.29,229.54 25.14,487.27 -88.45,763.98 212.92,-123.13 416.58,-210.39 605.89,-242.13l-57.49 110.56 689.9 -154.79 -75.18 106.13c342.21,-90.72 689.71,-86.18 1043.71,35.39l-119.4 57.49 579.35 35.38c132.45,-345.75 174.9,-713.99 212.28,-1083.51 -481.79,-267.18 -1072.38,-401.35 -1766.45,-409.09 -552.9,183.29 -1093.73,493.36 -1623.06,924.3z"/>
   <path class="fil2" d="M2289 3991.74c225.15,-410.44 514.87,-783.63 893.34,-1105.63 175.73,-9.9 352.03,-46.13 486.48,-114.98l-39.81 61.91c294,-79.06 571.35,-211.36 835.86,-384.76l35.38 84.03c117.04,-148.74 185.18,-320.04 225.54,-504.17l313.85 179.94c156.87,-45.14 357,-156.07 537.48,-266.18 99.32,408.31 62.1,793.86 -86.23,1160.9l-30.96 -66.34c-350.11,666.32 -1664.34,930.19 -1879.56,1640.74 -51.6,-30.96 -87.71,-86.24 -128.25,-165.84 -93.61,149.63 -196.07,325.79 -234.39,541.75 -344.55,-310.09 -654.94,-662.86 -928.72,-1061.39z"/>
   <path class="fil3" d="M4320.6 4111.23c361.05,-237.69 790.79,-453.63 1121.63,-818.25l22.11 84.03c332.26,-440.95 387.16,-952.86 212.31,-1523.55 121.47,-108.86 137.98,-284.71 -17.69,-570.5l84.02 70.75c-35.78,-174.19 -124.89,-313.74 -278.61,-411.29l-641.26 336.11 -42.01 -92.87c71.24,-106.36 117.29,-215.48 201.22,-331.68 -102.37,44.19 -183.63,117.95 -256.5,203.43l-4.42 -371.49 -97.3 -84.03 344.95 -75.18c581.22,147.1 1093.45,453.6 1503.64,824.79 -129.88,10.73 -320.49,-4.97 -442.02,41.19 227.39,221.25 376.79,445.9 468.57,673.04 -90.67,-39.81 -210.07,-55.29 -307.37,-72.98 308.83,836.59 -165.1,1246.41 -46.44,1992.34 -278.25,380.77 -586.9,735.48 -931.14,1059.68 -19.67,-101.92 -59.15,-197.88 -103.62,-292.79l-69.66 -148.68 -112.73 119.37c-14.03,14.86 -29.17,30.87 -45.06,46.93 -107.7,-278.96 -313.41,-480.22 -562.61,-658.37z"/>
   <path class="fil2" d="M4912.13 1419.05l406.87 -179.11c12.54,150.33 -36.13,242.53 -141.52,280.83 -104.48,36.62 -190.36,-8.6 -265.35,-101.72z"/>
   <path class="fil2" d="M4598.84 1131.76c-42.16,246.92 -96.39,493.85 -185.75,740.77l99.91 21.37c61.67,-247.31 83.17,-503.03 85.84,-762.14z"/>
   <path class="fil4" d="M1480.25 2533.52c174.32,444.83 384.39,853.92 641.26,1216.19 202.7,-388.08 481.33,-738.19 849.12,-1043.71 -477.19,-145.73 -965.97,-239.19 -1490.38,-172.48z"/>
   <path class="fil4" d="M6666.73 1339.46c213.75,109.09 461.11,192.52 660.06,327.27 -243.11,733.79 -598.65,1446.51 -1030.44,2144.91 -73.7,-551.34 308.11,-1067.29 84.03,-1627.47l344.96 106.14c-56.02,-324.32 -278.16,-599.43 -471.27,-813.19 116.28,-36.76 335.65,-13.82 497.81,-27.09l-85.14 -110.57z"/>
   <path class="fil3" d="M421.62 1821.55c-108.22,349.34 -164.49,701.74 -172.48,1056.98 122.3,-213.42 271.29,-398.37 482.05,-517.43l8.84 66.34c271.56,-256.38 515.67,-446.85 698.76,-490.9 112.98,-256.67 173.04,-484.84 132.67,-658.95 -392.13,8.84 -746.66,495.32 -1149.85,543.97z"/>
   <path class="fil2" d="M1101.91 1275.97c-165.22,115 -308.31,255.42 -495.65,344.99 529.23,-596.63 1211.01,-1061.06 2094.04,-1351.07 827.41,2.76 1343.03,179.77 1769,406.87l22.11 83.99c-481.79,-267.18 -1072.39,-401.35 -1766.45,-409.09 -552.9,183.29 -1093.73,493.36 -1623.06,924.3zm64.99 -23.51l-64.99 23.51c21.76,-8.09 43.42,-15.94 64.99,-23.51z"/>
   <path class="fil5" d="M4982.31 853.97l-110.48 298.82 22.34 88.49 -71.07 37.25 -42.01 -92.87c59.33,-111.12 126.96,-227.21 201.22,-331.69z"/>
   <path class="fil5" d="M6405.89 1292.45l0.03 0.02c22.54,19.49 44.81,39.16 66.77,59.03 -22.94,1.89 -47.77,2.96 -73.78,3.7 -121.27,3.41 -268.17,-0.51 -368.25,37.5 131.77,128.21 237.35,257.56 320.7,387.87 60.49,94.57 109.27,189.64 147.88,285.17 -51.84,-22.76 -113.09,-37.56 -174.23,-49.38 -45.77,-8.84 -91.48,-16.01 -133.13,-23.59 49.73,134.72 79.08,258.33 93.96,374.1 43.84,341.13 -38.61,613.87 -100.56,899.67 -35.73,164.82 -64.59,333.99 -58.48,523.13 2.03,62.76 7.87,127.7 18.64,195.44 -15.81,21.63 -31.71,43.17 -47.72,64.63l-5.9 7.89c-57.83,-461.92 80.99,-894.68 150.56,-1361.25 36.24,-243.12 -36.17,-504.65 -113.49,-751.94 85.4,-0.35 193.91,26.66 282.11,41.36 -59.68,-139.45 -213.82,-352.82 -462.21,-621.98 144.29,-51.4 309.49,-67.51 457.11,-71.36z"/>
   <path class="fil6" d="M5114.64 5143.57c-8.05,-126.62 -58.55,-244.75 -105.15,-344.19 -69.14,73.2 -127.31,128.75 -184.64,163.63 -77.02,-351.52 -308.69,-579.16 -598.17,-781.35 -289.48,202.19 -521.15,429.83 -598.17,781.35 -57.33,-34.88 -115.51,-90.43 -184.65,-163.63 -46.59,99.44 -97.09,217.57 -105.14,344.19 239.32,217.02 495.43,419.66 769.95,606.52 39.13,26.38 78.48,52.57 118.01,78.63 39.54,-26.06 78.88,-52.25 118.01,-78.63 274.52,-186.86 530.63,-389.49 769.95,-606.52z"/>
   <polygon class="fil7" points="4226.69,4639.59 4568.94,4898.88 4911.21,5158.16 4568.94,5417.45 4226.69,5676.74 3884.43,5417.45 3542.16,5158.16 3884.43,4898.88 "/>
   <circle class="fil8" cx="4226.69" cy="5158.16" r="269.88"/>
  </g>
 </g>
</svg>
